<svg width="60" height="60" viewBox="0 0 60 60" fill="none" xmlns="http://www.w3.org/2000/svg">
<rect width="60" height="60" rx="4" fill="#5559DF"/>
<path fill-rule="evenodd" clip-rule="evenodd" d="M24.9539 45.3358C24.9539 46.1329 25.8823 46.5687 26.4943 46.0587L31.141 42.187L45.6499 42.187C46.9478 42.187 47.9999 41.1349 47.9999 39.837L47.9999 21.3502C47.9999 20.0523 46.9478 19.0002 45.6499 19.0002L19.0163 19.0002C17.7185 19.0002 16.6663 20.0523 16.6663 21.3502L16.6663 39.837C16.6663 41.1349 17.7185 42.187 19.0163 42.187L24.9539 42.187L24.9539 45.3358Z" fill="white"/>
<path opacity="0.6" d="M44.0003 36.6502C44.0003 37.9481 42.9481 39.0002 41.6503 39.0002L14.35 39.0002C13.0521 39.0002 12 37.9481 12 36.6502L12 15.35C12 14.0522 13.0521 13 14.35 13L41.6503 13C42.9481 13 44.0003 14.0522 44.0003 15.35L44.0003 36.6502Z" fill="white"/>
<path d="M31.6343 33.6572C31.6343 32.8369 31.7339 32.1836 31.9331 31.6973C32.1323 31.2109 32.4956 30.7334 33.0229 30.2646C33.5562 29.79 33.9106 29.4062 34.0864 29.1133C34.2622 28.8145 34.3501 28.501 34.3501 28.1729C34.3501 27.1826 33.8931 26.6875 32.979 26.6875C32.5454 26.6875 32.1968 26.8223 31.9331 27.0918C31.6753 27.3555 31.5405 27.7217 31.5288 28.1904H28.98C28.9917 27.0713 29.3521 26.1953 30.061 25.5625C30.7759 24.9297 31.7485 24.6133 32.979 24.6133C34.2212 24.6133 35.1851 24.915 35.8706 25.5186C36.5562 26.1162 36.8989 26.9629 36.8989 28.0586C36.8989 28.5566 36.7876 29.0283 36.5649 29.4736C36.3423 29.9131 35.9526 30.4023 35.396 30.9414L34.6841 31.6182C34.2388 32.0459 33.9839 32.5469 33.9194 33.1211L33.8843 33.6572H31.6343ZM31.3794 36.3555C31.3794 35.9629 31.5112 35.6406 31.7749 35.3887C32.0444 35.1309 32.3872 35.002 32.8032 35.002C33.2192 35.002 33.5591 35.1309 33.8228 35.3887C34.0923 35.6406 34.2271 35.9629 34.2271 36.3555C34.2271 36.7422 34.0952 37.0615 33.8315 37.3135C33.5737 37.5654 33.231 37.6914 32.8032 37.6914C32.3755 37.6914 32.0298 37.5654 31.7661 37.3135C31.5083 37.0615 31.3794 36.7422 31.3794 36.3555Z" fill="#5559DF"/>
</svg>
